<?xml version="1.0" encoding="UTF-8" standalone="no"?>
<!DOCTYPE svg PUBLIC "-//W3C//DTD SVG 1.1//EN"
 "http://www.w3.org/Graphics/SVG/1.1/DTD/svg11.dtd">
<!-- Generated by graphviz version 16.0.0 (20260814.1018)
 -->
<!-- Title: G Pages: 1 -->
<svg width="937pt" height="547pt"
 viewBox="0.00 0.00 937.00 547.00" xmlns="http://www.w3.org/2000/svg" xmlns:xlink="http://www.w3.org/1999/xlink">
<g id="graph0" class="graph" transform="scale(1 1) rotate(0) translate(4 543.44)">
<title>G</title><style>.edge>path:hover{stroke-width:8}</style>
<polygon fill="white" stroke="none" points="-4,4 -4,-543.44 933.1,-543.44 933.1,4 -4,4"/>
<!-- ImagingPipeline_dashboard -->
<g id="node1" class="node">
<title>ImagingPipeline_dashboard</title><style>.edge>path:hover{stroke-width:8}</style>
<ellipse fill="#793434" stroke="black" cx="438.47" cy="-116.61" rx="62.23" ry="21.57"/>
<text xml:space="preserve" text-anchor="middle" x="438.47" y="-118.36" font-family="Helvetica,sans-Serif" font-size="10.00" fill="#ffffff">ImagingPipeline.</text>
<text xml:space="preserve" text-anchor="middle" x="438.47" y="-107.11" font-family="Helvetica,sans-Serif" font-size="10.00" fill="#ffffff">dashboard</text>
</g>
<!-- ImagingPipeline_scripts_deface_nifti_with_pydeface -->
<g id="node2" class="node">
<title>ImagingPipeline_scripts_deface_nifti_with_pydeface</title><style>.edge>path:hover{stroke-width:8}</style>
<ellipse fill="#b34c4c" stroke="black" cx="687.47" cy="-29.52" rx="95.11" ry="29.52"/>
<text xml:space="preserve" text-anchor="middle" x="687.47" y="-36.9" font-family="Helvetica,sans-Serif" font-size="10.00" fill="#ffffff">ImagingPipeline.</text>
<text xml:space="preserve" text-anchor="middle" x="687.47" y="-25.65" font-family="Helvetica,sans-Serif" font-size="10.00" fill="#ffffff">scripts.</text>
<text xml:space="preserve" text-anchor="middle" x="687.47" y="-14.4" font-family="Helvetica,sans-Serif" font-size="10.00" fill="#ffffff">deface_nifti_with_pydeface</text>
</g>
<!-- ImagingPipeline_scripts_dicom_to_nifti -->
<g id="node3" class="node">
<title>ImagingPipeline_scripts_dicom_to_nifti</title><style>.edge>path:hover{stroke-width:8}</style>
<ellipse fill="#b34c4c" stroke="black" cx="862.47" cy="-29.52" rx="62.23" ry="29.52"/>
<text xml:space="preserve" text-anchor="middle" x="862.47" y="-36.9" font-family="Helvetica,sans-Serif" font-size="10.00" fill="#ffffff">ImagingPipeline.</text>
<text xml:space="preserve" text-anchor="middle" x="862.47" y="-25.65" font-family="Helvetica,sans-Serif" font-size="10.00" fill="#ffffff">scripts.</text>
<text xml:space="preserve" text-anchor="middle" x="862.47" y="-14.4" font-family="Helvetica,sans-Serif" font-size="10.00" fill="#ffffff">dicom_to_nifti</text>
</g>
<!-- ImagingPipeline_scripts_nifti_to_bids -->
<g id="node4" class="node">
<title>ImagingPipeline_scripts_nifti_to_bids</title><style>.edge>path:hover{stroke-width:8}</style>
<ellipse fill="#964040" stroke="black" cx="365.47" cy="-29.52" rx="62.23" ry="29.52"/>
<text xml:space="preserve" text-anchor="middle" x="365.47" y="-36.9" font-family="Helvetica,sans-Serif" font-size="10.00" fill="#ffffff">ImagingPipeline.</text>
<text xml:space="preserve" text-anchor="middle" x="365.47" y="-25.65" font-family="Helvetica,sans-Serif" font-size="10.00" fill="#ffffff">scripts.</text>
<text xml:space="preserve" text-anchor="middle" x="365.47" y="-14.4" font-family="Helvetica,sans-Serif" font-size="10.00" fill="#ffffff">nifti_to_bids</text>
</g>
<!-- ImagingPipeline_views -->
<g id="node5" class="node">
<title>ImagingPipeline_views</title><style>.edge>path:hover{stroke-width:8}</style>
<ellipse fill="#c04040" stroke="black" cx="438.47" cy="-195.74" rx="62.23" ry="21.57"/>
<text xml:space="preserve" text-anchor="middle" x="438.47" y="-197.49" font-family="Helvetica,sans-Serif" font-size="10.00" fill="#ffffff">ImagingPipeline.</text>
<text xml:space="preserve" text-anchor="middle" x="438.47" y="-186.24" font-family="Helvetica,sans-Serif" font-size="10.00" fill="#ffffff">views</text>
</g>
<!-- ImagingPipeline_views&#45;&gt;ImagingPipeline_dashboard -->
<g id="edge1" class="edge">
<title>ImagingPipeline_views&#45;&gt;ImagingPipeline_dashboard</title><style>.edge>path:hover{stroke-width:8}</style>
<path fill="none" stroke="black" d="M438.47,-174.07C438.47,-166.7 438.47,-158.2 438.47,-150.07"/>
<polygon fill="#c04040" stroke="black" points="441.97,-150.12 438.47,-140.12 434.97,-150.12 441.97,-150.12"/>
</g>
<!-- ImagingPipeline_views_imaging_home -->
<g id="node6" class="node">
<title>ImagingPipeline_views_imaging_home</title><style>.edge>path:hover{stroke-width:8}</style>
<ellipse fill="#c24747" stroke="black" cx="438.47" cy="-282.83" rx="62.23" ry="29.52"/>
<text xml:space="preserve" text-anchor="middle" x="438.47" y="-290.21" font-family="Helvetica,sans-Serif" font-size="10.00" fill="#ffffff">ImagingPipeline.</text>
<text xml:space="preserve" text-anchor="middle" x="438.47" y="-278.96" font-family="Helvetica,sans-Serif" font-size="10.00" fill="#ffffff">views.</text>
<text xml:space="preserve" text-anchor="middle" x="438.47" y="-267.71" font-family="Helvetica,sans-Serif" font-size="10.00" fill="#ffffff">imaging_home</text>
</g>
<!-- ImagingPipeline_views_imaging_home&#45;&gt;ImagingPipeline_views -->
<g id="edge2" class="edge">
<title>ImagingPipeline_views_imaging_home&#45;&gt;ImagingPipeline_views</title><style>.edge>path:hover{stroke-width:8}</style>
<path fill="none" stroke="black" d="M438.47,-253.03C438.47,-245.34 438.47,-236.99 438.47,-229.13"/>
<polygon fill="#c24747" stroke="black" points="441.97,-229.24 438.47,-219.24 434.97,-229.24 441.97,-229.24"/>
</g>
<!-- MetadataPipeline -->
<g id="node7" class="node">
<title>MetadataPipeline</title><style>.edge>path:hover{stroke-width:8}</style>
<ellipse fill="#3bce3b" stroke="black" cx="723.47" cy="-282.83" rx="53.84" ry="18"/>
<text xml:space="preserve" text-anchor="middle" x="723.47" y="-278.96" font-family="Helvetica,sans-Serif" font-size="10.00" fill="#000000">MetadataPipeline</text>
</g>
<!-- MetadataPipeline&#45;&gt;ImagingPipeline_dashboard -->
<g id="edge3" class="edge">
<title>MetadataPipeline&#45;&gt;ImagingPipeline_dashboard</title><style>.edge>path:hover{stroke-width:8}</style>
<path fill="none" stroke="black" d="M767.47,-194.74C750.96,-146.13 603.26,-127.94 511.46,-121.29"/>
<polygon fill="#3bce3b" stroke="black" points="511.73,-117.8 501.51,-120.6 511.24,-124.78 511.73,-117.8"/>
<path fill="none" stroke="black" d="M741,-265.54C756.7,-248.88 776.02,-221.94 767.47,-196.74"/>
</g>
<!-- MetadataPipeline&#45;&gt;ImagingPipeline_scripts_nifti_to_bids -->
<g id="edge4" class="edge">
<title>MetadataPipeline&#45;&gt;ImagingPipeline_scripts_nifti_to_bids</title><style>.edge>path:hover{stroke-width:8}</style>
<path fill="none" stroke="black" d="M767.47,-115.61C743.89,-92.55 544.54,-58.4 435.72,-41.22"/>
<polygon fill="#3bce3b" stroke="black" points="436.43,-37.79 426.01,-39.69 435.35,-44.7 436.43,-37.79"/>
<path fill="none" stroke="black" d="M767.47,-194.74C756.45,-162.28 791.98,-141.58 767.47,-117.61"/>
</g>
<!-- MetadataPipeline_forms -->
<g id="node8" class="node">
<title>MetadataPipeline_forms</title><style>.edge>path:hover{stroke-width:8}</style>
<ellipse fill="#53b653" stroke="black" cx="585.47" cy="-282.83" rx="66.47" ry="21.57"/>
<text xml:space="preserve" text-anchor="middle" x="585.47" y="-284.58" font-family="Helvetica,sans-Serif" font-size="10.00" fill="#000000">MetadataPipeline.</text>
<text xml:space="preserve" text-anchor="middle" x="585.47" y="-273.33" font-family="Helvetica,sans-Serif" font-size="10.00" fill="#000000">forms</text>
</g>
<!-- MetadataPipeline_forms&#45;&gt;ImagingPipeline_dashboard -->
<g id="edge5" class="edge">
<title>MetadataPipeline_forms&#45;&gt;ImagingPipeline_dashboard</title><style>.edge>path:hover{stroke-width:8}</style>
<path fill="none" stroke="black" d="M573.56,-261.51C559.75,-238.86 535.53,-201.8 509.47,-174.18 499.06,-163.14 486.43,-152.41 474.74,-143.31"/>
<polygon fill="#53b653" stroke="black" points="476.9,-140.56 466.82,-137.3 472.67,-146.13 476.9,-140.56"/>
</g>
<!-- MetadataPipeline_forms_clinical_assessment -->
<g id="node9" class="node">
<title>MetadataPipeline_forms_clinical_assessment</title><style>.edge>path:hover{stroke-width:8}</style>
<ellipse fill="#46a446" stroke="black" cx="450.47" cy="-377.88" rx="73.89" ry="29.52"/>
<text xml:space="preserve" text-anchor="middle" x="450.47" y="-385.25" font-family="Helvetica,sans-Serif" font-size="10.00" fill="#ffffff">MetadataPipeline.</text>
<text xml:space="preserve" text-anchor="middle" x="450.47" y="-374" font-family="Helvetica,sans-Serif" font-size="10.00" fill="#ffffff">forms.</text>
<text xml:space="preserve" text-anchor="middle" x="450.47" y="-362.75" font-family="Helvetica,sans-Serif" font-size="10.00" fill="#ffffff">clinical_assessment</text>
</g>
<!-- MetadataPipeline_forms_clinical_assessment&#45;&gt;ImagingPipeline_dashboard -->
<g id="edge6" class="edge">
<title>MetadataPipeline_forms_clinical_assessment&#45;&gt;ImagingPipeline_dashboard</title><style>.edge>path:hover{stroke-width:8}</style>
<path fill="none" stroke="black" d="M406.74,-353.77C382.65,-337.93 356.12,-314.28 348.47,-283.83"/>
</g>
<!-- MetadataPipeline_storage -->
<g id="node10" class="node">
<title>MetadataPipeline_storage</title><style>.edge>path:hover{stroke-width:8}</style>
<ellipse fill="#40c040" stroke="black" cx="254.47" cy="-282.83" rx="66.47" ry="21.57"/>
<text xml:space="preserve" text-anchor="middle" x="254.47" y="-284.58" font-family="Helvetica,sans-Serif" font-size="10.00" fill="#000000">MetadataPipeline.</text>
<text xml:space="preserve" text-anchor="middle" x="254.47" y="-273.33" font-family="Helvetica,sans-Serif" font-size="10.00" fill="#000000">storage</text>
</g>
<!-- MetadataPipeline_storage&#45;&gt;ImagingPipeline_dashboard -->
<g id="edge7" class="edge">
<title>MetadataPipeline_storage&#45;&gt;ImagingPipeline_dashboard</title><style>.edge>path:hover{stroke-width:8}</style>
<path fill="none" stroke="black" d="M226.47,-194.74C235.87,-165.3 314.26,-142.85 373,-129.95"/>
<polygon fill="#40c040" stroke="black" points="373.56,-133.41 382.61,-127.89 372.1,-126.57 373.56,-133.41"/>
</g>
<!-- MetadataPipeline_storage&#45;&gt;ImagingPipeline_scripts_nifti_to_bids -->
<g id="edge8" class="edge">
<title>MetadataPipeline_storage&#45;&gt;ImagingPipeline_scripts_nifti_to_bids</title><style>.edge>path:hover{stroke-width:8}</style>
<path fill="none" stroke="black" d="M240.39,-261.58C230.2,-244.36 219.37,-218.96 226.47,-196.74"/>
<path fill="none" stroke="black" d="M226.47,-194.74C236.9,-162.09 204.3,-143.76 226.47,-117.61"/>
</g>
<!-- MetadataPipeline_storage_data_link_store -->
<g id="node11" class="node">
<title>MetadataPipeline_storage_data_link_store</title><style>.edge>path:hover{stroke-width:8}</style>
<ellipse fill="#53b653" stroke="black" cx="66.47" cy="-282.83" rx="66.47" ry="29.52"/>
<text xml:space="preserve" text-anchor="middle" x="66.47" y="-290.21" font-family="Helvetica,sans-Serif" font-size="10.00" fill="#000000">MetadataPipeline.</text>
<text xml:space="preserve" text-anchor="middle" x="66.47" y="-278.96" font-family="Helvetica,sans-Serif" font-size="10.00" fill="#000000">storage.</text>
<text xml:space="preserve" text-anchor="middle" x="66.47" y="-267.71" font-family="Helvetica,sans-Serif" font-size="10.00" fill="#000000">data_link_store</text>
</g>
<!-- MetadataPipeline_storage_data_link_store&#45;&gt;ImagingPipeline_scripts_nifti_to_bids -->
<g id="edge9" class="edge">
<title>MetadataPipeline_storage_data_link_store&#45;&gt;ImagingPipeline_scripts_nifti_to_bids</title><style>.edge>path:hover{stroke-width:8}</style>
<path fill="none" stroke="black" d="M100.71,-257.51C120.44,-242.01 144.43,-220.44 160.47,-196.74"/>
<path fill="none" stroke="black" d="M160.47,-194.74C185.76,-157.38 197.3,-152.03 226.47,-117.61"/>
<path fill="none" stroke="black" d="M226.47,-115.61C248.71,-89.37 281.17,-68.86 309.13,-54.56"/>
<polygon fill="#53b653" stroke="black" points="310.44,-57.82 317.85,-50.25 307.33,-51.55 310.44,-57.82"/>
</g>
<!-- MetadataPipeline_storage_record_repository -->
<g id="node12" class="node">
<title>MetadataPipeline_storage_record_repository</title><style>.edge>path:hover{stroke-width:8}</style>
<ellipse fill="#47c247" stroke="black" cx="254.47" cy="-377.88" rx="66.47" ry="29.52"/>
<text xml:space="preserve" text-anchor="middle" x="254.47" y="-385.25" font-family="Helvetica,sans-Serif" font-size="10.00" fill="#000000">MetadataPipeline.</text>
<text xml:space="preserve" text-anchor="middle" x="254.47" y="-374" font-family="Helvetica,sans-Serif" font-size="10.00" fill="#000000">storage.</text>
<text xml:space="preserve" text-anchor="middle" x="254.47" y="-362.75" font-family="Helvetica,sans-Serif" font-size="10.00" fill="#000000">record_repository</text>
</g>
<!-- MetadataPipeline_storage_record_repository&#45;&gt;ImagingPipeline_scripts_nifti_to_bids -->
<g id="edge10" class="edge">
<title>MetadataPipeline_storage_record_repository&#45;&gt;ImagingPipeline_scripts_nifti_to_bids</title><style>.edge>path:hover{stroke-width:8}</style>
<path fill="none" stroke="black" d="M216.97,-353.03C203.04,-342.28 188.47,-328.38 179.47,-312.35 153.97,-266.95 131.28,-239.87 160.47,-196.74"/>
</g>
<!-- MetadataPipeline_storage_record_repository&#45;&gt;MetadataPipeline_storage -->
<g id="edge11" class="edge">
<title>MetadataPipeline_storage_record_repository&#45;&gt;MetadataPipeline_storage</title><style>.edge>path:hover{stroke-width:8}</style>
<path fill="none" stroke="black" d="M254.47,-347.95C254.47,-337.9 254.47,-326.57 254.47,-316.26"/>
<polygon fill="#47c247" stroke="black" points="257.97,-316.28 254.47,-306.28 250.97,-316.28 257.97,-316.28"/>
</g>
<!-- MetadataPipeline_validation -->
<g id="node13" class="node">
<title>MetadataPipeline_validation</title><style>.edge>path:hover{stroke-width:8}</style>
<ellipse fill="#3bce3b" stroke="black" cx="424.47" cy="-509.92" rx="66.47" ry="21.57"/>
<text xml:space="preserve" text-anchor="middle" x="424.47" y="-511.67" font-family="Helvetica,sans-Serif" font-size="10.00" fill="#000000">MetadataPipeline.</text>
<text xml:space="preserve" text-anchor="middle" x="424.47" y="-500.42" font-family="Helvetica,sans-Serif" font-size="10.00" fill="#000000">validation</text>
</g>
<!-- MetadataPipeline_validation&#45;&gt;ImagingPipeline_dashboard -->
<g id="edge12" class="edge">
<title>MetadataPipeline_validation&#45;&gt;ImagingPipeline_dashboard</title><style>.edge>path:hover{stroke-width:8}</style>
<path fill="none" stroke="black" d="M367.47,-443.4C370.25,-413.63 348.47,-408.77 348.47,-378.88"/>
<path fill="none" stroke="black" d="M393.94,-490.41C379.49,-479.07 365.71,-463.15 367.47,-444.4"/>
</g>
<!-- MetadataPipeline_validation&#45;&gt;ImagingPipeline_scripts_nifti_to_bids -->
<g id="edge13" class="edge">
<title>MetadataPipeline_validation&#45;&gt;ImagingPipeline_scripts_nifti_to_bids</title><style>.edge>path:hover{stroke-width:8}</style>
<path fill="none" stroke="black" d="M367.47,-443.4C370.99,-405.82 497.26,-418.06 533.47,-407.4 648.69,-373.46 718.08,-411.1 786.47,-312.35 835.98,-240.86 829.64,-178.41 767.47,-117.61"/>
</g>
<!-- MetadataPipeline_validation&#45;&gt;MetadataPipeline_forms_clinical_assessment -->
<g id="edge14" class="edge">
<title>MetadataPipeline_validation&#45;&gt;MetadataPipeline_forms_clinical_assessment</title><style>.edge>path:hover{stroke-width:8}</style>
<path fill="none" stroke="black" d="M367.47,-443.4C368.91,-428.04 378.43,-415.8 390.56,-406.28"/>
<polygon fill="#3bce3b" stroke="black" points="392.35,-409.3 398.53,-400.69 388.33,-403.57 392.35,-409.3"/>
</g>
<!-- MetadataPipeline_validation_conditions -->
<g id="node14" class="node">
<title>MetadataPipeline_validation_conditions</title><style>.edge>path:hover{stroke-width:8}</style>
<ellipse fill="#47c247" stroke="black" cx="273.47" cy="-509.92" rx="66.47" ry="29.52"/>
<text xml:space="preserve" text-anchor="middle" x="273.47" y="-517.29" font-family="Helvetica,sans-Serif" font-size="10.00" fill="#000000">MetadataPipeline.</text>
<text xml:space="preserve" text-anchor="middle" x="273.47" y="-506.04" font-family="Helvetica,sans-Serif" font-size="10.00" fill="#000000">validation.</text>
<text xml:space="preserve" text-anchor="middle" x="273.47" y="-494.79" font-family="Helvetica,sans-Serif" font-size="10.00" fill="#000000">conditions</text>
</g>
<!-- MetadataPipeline_validation_conditions&#45;&gt;ImagingPipeline_dashboard -->
<g id="edge15" class="edge">
<title>MetadataPipeline_validation_conditions&#45;&gt;ImagingPipeline_dashboard</title><style>.edge>path:hover{stroke-width:8}</style>
<path fill="none" stroke="black" d="M296.11,-481.76C306.1,-470.06 318.14,-456.34 329.47,-444.4"/>
<path fill="none" stroke="black" d="M348.47,-376.88C348.47,-335.52 358.55,-323.94 348.47,-283.83"/>
<path fill="none" stroke="black" d="M329.47,-443.4C350.04,-421.71 348.47,-408.77 348.47,-378.88"/>
<path fill="none" stroke="black" d="M348.47,-281.83C336.62,-234.71 342.64,-215.94 367.47,-174.18 374.9,-161.67 386.21,-150.83 397.63,-142.08"/>
<polygon fill="#47c247" stroke="black" points="399.44,-145.08 405.51,-136.4 395.35,-139.4 399.44,-145.08"/>
</g>
<!-- MetadataPipeline_validation_conditions&#45;&gt;MetadataPipeline_forms_clinical_assessment -->
<g id="edge16" class="edge">
<title>MetadataPipeline_validation_conditions&#45;&gt;MetadataPipeline_forms_clinical_assessment</title><style>.edge>path:hover{stroke-width:8}</style>
<path fill="none" stroke="black" d="M329.47,-443.4C345.23,-426.78 366.24,-413.54 386.33,-403.48"/>
<polygon fill="#47c247" stroke="black" points="387.84,-406.64 395.35,-399.16 384.82,-400.32 387.84,-406.64"/>
</g>
<!-- pipeline_config -->
<g id="node15" class="node">
<title>pipeline_config</title><style>.edge>path:hover{stroke-width:8}</style>
<ellipse fill="#3b3bce" stroke="black" cx="881.47" cy="-282.83" rx="47.63" ry="18"/>
<text xml:space="preserve" text-anchor="middle" x="881.47" y="-278.96" font-family="Helvetica,sans-Serif" font-size="10.00" fill="#ffffff">pipeline_config</text>
</g>
<!-- pipeline_config&#45;&gt;ImagingPipeline_dashboard -->
<g id="edge17" class="edge">
<title>pipeline_config&#45;&gt;ImagingPipeline_dashboard</title><style>.edge>path:hover{stroke-width:8}</style>
<path fill="none" stroke="black" d="M882.17,-264.37C881.99,-245.51 878.83,-215.62 862.47,-196.74"/>
<path fill="none" stroke="black" d="M862.47,-194.74C817.68,-143.07 620.7,-125.87 511.69,-120.25"/>
<polygon fill="#3b3bce" stroke="black" points="512.13,-116.77 501.97,-119.77 511.78,-123.76 512.13,-116.77"/>
</g>
<!-- pipeline_config&#45;&gt;ImagingPipeline_scripts_deface_nifti_with_pydeface -->
<g id="edge18" class="edge">
<title>pipeline_config&#45;&gt;ImagingPipeline_scripts_deface_nifti_with_pydeface</title><style>.edge>path:hover{stroke-width:8}</style>
<path fill="none" stroke="black" d="M862.47,-194.74C840.01,-168.84 875.62,-149.27 862.47,-117.61"/>
<path fill="none" stroke="black" d="M862.47,-115.61C853.75,-94.64 805.94,-72.24 762.5,-55.68"/>
<polygon fill="#3b3bce" stroke="black" points="763.87,-52.46 753.28,-52.24 761.42,-59.02 763.87,-52.46"/>
</g>
<!-- pipeline_config&#45;&gt;ImagingPipeline_scripts_dicom_to_nifti -->
<g id="edge19" class="edge">
<title>pipeline_config&#45;&gt;ImagingPipeline_scripts_dicom_to_nifti</title><style>.edge>path:hover{stroke-width:8}</style>
<path fill="none" stroke="black" d="M862.47,-115.61C856.65,-101.62 855.5,-85.18 856.2,-70.5"/>
<polygon fill="#3b3bce" stroke="black" points="859.68,-70.94 856.99,-60.69 852.7,-70.38 859.68,-70.94"/>
</g>
</g>
</svg>
